PathFileType	4	(X/Y/Z)	C:\Users\Basilio\Documents\Thesis Gigler\squatting_fais\c3dfiles\047\SLS_pre_front2\markers_experimental.trc
DataRate	CameraRate	NumFrames	NumMarkers	Units	OrigDataRate	OrigDataStartFrame	OrigNumFrames
200.000000	200.000000	4	60	mm	200.000000	786	1258
Frame#	Time	FHD			LBHD			RBHD			C7			T10			CLAV			LSHO			LUUPA			LMUPA			LDUPA			LLEP			LMEP			LRAD			LUL			LRFIN			RSHO			RUPA1			RMUPA			RDUPA			RLEP			RMEP			RRAD			RUL			RUFIN			LASI			RASI			USACR			LSACR			RSACR			LTHI1			LTHI2			LTHI3			LTHI4			LLFC			LMFC			LTIB1			LTIB2			LTIB3			LTIB4			LLMAL			LMMAL			LMT1			LMT2			LMT5			RTHI			RTHI2			RTHI3			RTHI4			RLFC			RMFC			RTIB1			RTIB2			RTIB3			RTIB4			RLMAL			RMMAL			RHEE			RMT1			RMT2			RMT5			
		X1	Y1	Z1	X2	Y2	Z2	X3	Y3	Z3	X4	Y4	Z4	X5	Y5	Z5	X6	Y6	Z6	X7	Y7	Z7	X8	Y8	Z8	X9	Y9	Z9	X10	Y10	Z10	X11	Y11	Z11	X12	Y12	Z12	X13	Y13	Z13	X14	Y14	Z14	X15	Y15	Z15	X16	Y16	Z16	X17	Y17	Z17	X18	Y18	Z18	X19	Y19	Z19	X20	Y20	Z20	X21	Y21	Z21	X22	Y22	Z22	X23	Y23	Z23	X24	Y24	Z24	X25	Y25	Z25	X26	Y26	Z26	X27	Y27	Z27	X28	Y28	Z28	X29	Y29	Z29	X30	Y30	Z30	X31	Y31	Z31	X32	Y32	Z32	X33	Y33	Z33	X34	Y34	Z34	X35	Y35	Z35	X36	Y36	Z36	X37	Y37	Z37	X38	Y38	Z38	X39	Y39	Z39	X40	Y40	Z40	X41	Y41	Z41	X42	Y42	Z42	X43	Y43	Z43	X44	Y44	Z44	X45	Y45	Z45	X46	Y46	Z46	X47	Y47	Z47	X48	Y48	Z48	X49	Y49	Z49	X50	Y50	Z50	X51	Y51	Z51	X52	Y52	Z52	X53	Y53	Z53	X54	Y54	Z54	X55	Y55	Z55	X56	Y56	Z56	X57	Y57	Z57	X58	Y58	Z58	X59	Y59	Z59	X60	Y60	Z60	

787	3.93	-80.01203918457033	1469.410522460938	-1089.579345703125	-258.7418518066407	1441.487548828125	-1118.1142578125	-236.9102478027344	1441.165771484375	-970.5186767578127	-302.7443237304688	1286.732055664063	-1042.185302734375	-429.2515563964845	1013.745483398438	-1004.886108398438	-161.5464782714844	1200.532470703125	-1073.609741210938	-244.4141998291016	1265.052368164063	-1201.853759765625	-173.6738891601563	1206.39599609375	-1342.951293945313	-142.5155334472657	1245.475708007813	-1334.45703125	-110.8806228637696	1213.630615234375	-1371.119750976563	-49.9699172973633	1233.014770507813	-1392.274536132813	-17.41841888427735	1169.752075195313	-1353.520874023438	220.1654052734376	1242.729736328125	-1400.101440429688	199.9153442382813	1264.132202148438	-1471.405883789063	294.4907226562501	1278.889282226563	-1427.637939453125	-189.145248413086	1270.31396484375	-931.1182250976565	-57.82508087158205	1212.01513671875	-828.0134887695315	-32.3154411315918	1244.9697265625	-854.520690917969	11.19027805328369	1208.491943359375	-834.1789550781252	78.17348480224611	1220.796020507813	-849.195007324219	81.97991943359376	1152.837768554688	-895.6939086914065	330.6915283203126	1214.670043945313	-938.3784790039065	334.6478271484376	1231.935913085938	-868.633239746094	413.6986389160157	1238.643920898438	-937.2467041015627	-333.3262939453126	762.0515747070314	-1085.780151367188	-309.6314086914063	798.8059082031252	-863.622741699219	-492.7996520996095	869.3675537109377	-977.091491699219	-507.6809692382814	836.5823364257815	-1000.279968261719	-501.1265869140626	841.7398071289065	-943.8799438476565	-348.9089050292969	629.7386474609376	-1158.749633789063	-267.3049621582032	608.4223022460939	-1168.8515625	-237.3539276123047	645.3666992187501	-1158.818237304688	-244.3006591796876	552.9208984375001	-1172.37255859375	-132.4379272460938	433.2034301757814	-1153.901977539063	-83.53501129150392	449.5759582519532	-1032.357055664063	-159.8877105712891	284.2192077636719	-1032.78515625	-190.0985412597657	234.5358428955079	-1096.775512695313	-177.2310485839844	232.1618804931641	-1050.825073242188	-231.8765106201172	182.5518493652344	-1013.696044921875	-323.3016662597657	113.8471145629883	-1054.258178710938	-298.8168945312501	138.8487091064453	-967.480895996094	-190.5446014404297	62.23587036132814	-979.242126464844	-187.6257781982422	59.14509582519533	-1024.0771484375	-238.0830993652344	43.58473587036134	-1067.827026367188	-296.0029296875001	651.6040039062501	-758.7520141601564	-229.7583160400391	646.6911621093751	-768.3228759765627	-212.3397369384766	671.2877197265626	-780.6621093750002	-184.5042724609375	576.6642456054689	-772.0042114257815	-67.9655227661133	491.1449279785157	-800.1018676757815	-60.43420028686525	491.6695861816407	-924.3652954101565	40.39577102661134	417.1671447753907	-827.8785400390627	52.08446884155275	318.8673706054688	-779.892517089844	82.39952087402345	344.1568298339844	-805.0709228515627	114.2668914794922	310.6022338867188	-840.7810058593752	165.269287109375	159.0896148681641	-803.5843505859377	163.4581298828125	175.275146484375	-893.961853027344	128.351318359375	94.54708862304689	-844.0301513671877	311.9666442871094	180.2072296142578	-900.3045654296877	319.1852111816407	193.7778778076172	-858.6997680664065	300.2820129394532	155.166976928711	-794.4764404296877	
788	3.935	-80.17858123779298	1471.384155273438	-1090.057861328125	-259.1275329589844	1443.223754882813	-1117.924682617188	-237.5330200195313	1442.808227539063	-970.7326660156252	-303.1628417968751	1288.524658203125	-1042.075927734375	-429.017303466797	1014.796691894531	-1004.747741699219	-160.5013122558594	1202.399169921875	-1073.145629882813	-244.7566833496094	1266.665161132813	-1201.785278320313	-174.1167297363282	1208.066528320313	-1342.9306640625	-142.6402282714844	1246.997436523438	-1334.430908203125	-111.428825378418	1215.452758789063	-1371.108642578125	-50.6605682373047	1234.828002929688	-1392.31982421875	-17.95858955383301	1171.548828125	-1353.149291992188	219.7459564208985	1244.839477539063	-1400.237670898438	198.5605163574219	1266.545288085938	-1471.567504882813	294.0657653808594	1281.331298828125	-1427.921020507813	-189.6246032714844	1271.955078125	-930.8724365234377	-58.15959930419923	1213.688720703125	-827.8165283203127	-32.67347717285157	1246.83056640625	-854.7066040039065	11.05887699127197	1210.054565429688	-834.1737060546877	78.04343414306642	1222.765380859375	-849.0960083007815	81.65045166015626	1155.1533203125	-896.253601074219	330.5041809082032	1216.391235351563	-938.5032348632815	334.5312500000001	1233.92529296875	-868.7673339843752	413.353973388672	1240.527221679688	-937.0789184570315	-333.0184020996094	763.5309448242189	-1085.88330078125	-309.4551391601563	800.0032958984377	-863.4342041015627	-492.581756591797	870.7451782226565	-977.0258789062502	-507.4087524414064	838.0230102539065	-1000.339050292969	-501.0329589843751	843.2937011718752	-943.894714355469	-349.0876770019532	630.7827758789064	-1158.789428710938	-267.4519348144532	609.4740600585939	-1168.902221679688	-237.0452270507813	646.4180908203126	-1159.280639648438	-244.6446990966797	553.7397460937501	-1172.6201171875	-132.7002258300782	433.0416870117189	-1153.978271484375	-84.73640441894533	450.1824340820314	-1032.273681640625	-160.1062774658203	284.5470275878907	-1032.786499023438	-190.253646850586	234.9483489990235	-1096.836303710938	-177.3446502685547	232.3356628417969	-1050.982788085938	-231.9107666015626	182.5768737792969	-1013.779174804688	-323.3015136718751	113.8145904541016	-1054.355590820313	-298.7860717773438	138.8473205566407	-967.4794921875002	-190.4754333496094	62.30044174194337	-979.3062133789065	-187.4964752197266	59.29056549072267	-1024.091186523438	-238.0598449707032	43.57538223266602	-1067.825805664063	-295.7911987304688	652.7951660156251	-759.0216064453126	-229.6317901611329	648.0435180664064	-768.2369384765627	-212.0422515869141	672.4185180664064	-780.9190673828127	-184.4951629638672	577.3941650390626	-772.226989746094	-68.03002929687501	492.0618286132814	-800.3716430664065	-60.96663284301759	492.7192993164064	-924.5267333984377	39.90657043457032	417.9393615722657	-827.9543457031252	51.83339309692384	319.6305236816407	-780.727966308594	82.00366973876955	344.9024658203126	-805.3022460937502	113.9058380126953	311.1029052734376	-840.5900878906252	164.5023651123047	159.7464599609375	-803.6116333007815	162.6423950195313	175.8678894042969	-894.165954589844	127.1097564697266	95.45815277099611	-844.0526123046877	311.2267456054688	180.3298797607422	-900.555603027344	318.3120422363282	193.5081634521485	-858.4464111328127	299.2849426269532	155.4950714111328	-794.707214355469	
789	3.94	-80.96462249755861	1473.542724609375	-1089.666748046875	-259.5037231445313	1444.876098632813	-1117.867919921875	-238.0749511718751	1444.574951171875	-970.4649047851565	-303.2659606933594	1289.93359375	-1042.071533203125	-429.1653747558595	1016.455627441406	-1004.948364257813	-161.0609436035157	1203.957763671875	-1073.05908203125	-245.1470947265626	1268.386352539063	-1201.65869140625	-174.5293426513672	1209.882934570313	-1342.831298828125	-143.3515167236328	1248.972045898438	-1334.5009765625	-111.9070510864258	1217.109497070313	-1371.17333984375	-51.08540725708009	1236.477416992188	-1392.3193359375	-17.94717407226563	1173.348266601563	-1353.051025390625	219.2015380859376	1247.089111328125	-1400.330444335938	197.9462280273438	1268.661865234375	-1471.811889648438	293.6323242187501	1283.599731445313	-1428.320556640625	-189.6574401855469	1273.64501953125	-930.944274902344	-58.30003738403322	1215.274169921875	-827.7000732421877	-32.72463607788087	1248.3984375	-854.3054199218752	10.75836372375488	1211.807983398438	-834.2181396484377	77.66902923583986	1224.282104492188	-849.0134277343752	81.46683502197267	1156.412353515625	-895.4151000976565	330.1676025390626	1218.362670898438	-938.545837402344	334.4368591308594	1235.8349609375	-868.6756591796877	413.1018371582032	1242.3564453125	-937.2159423828127	-332.9242248535157	764.6237792968751	-1085.888305664063	-309.0279846191407	801.3811645507815	-863.8616943359377	-492.4222412109376	872.2418212890627	-977.1438598632815	-507.3457031250001	839.525573730469	-1000.432250976563	-500.6029357910157	844.6123046875002	-943.9605712890627	-349.0446777343751	632.1741333007814	-1158.861328125	-267.7713928222657	610.4876098632814	-1169.00341796875	-237.4313507080079	647.6011352539064	-1159.326416015625	-245.1670837402344	554.6805419921876	-1172.595092773438	-133.6698760986328	434.1431274414064	-1153.848754882813	-84.84163665771486	450.8144836425782	-1032.619750976563	-160.4605865478516	284.6703491210938	-1033.003295898438	-190.5395050048828	235.2848358154297	-1096.910034179688	-177.5691070556641	232.6720581054688	-1051.090698242188	-232.0061187744141	182.6758728027344	-1013.867797851563	-323.4583435058594	113.9204483032227	-1054.287719726563	-298.8107299804688	138.8537750244141	-967.5441894531252	-190.432846069336	62.31966018676759	-979.3391113281252	-187.3506164550782	59.35055923461915	-1024.156982421875	-238.0676269531251	43.58144760131837	-1067.819580078125	-295.7052307128907	654.3228149414064	-759.2159423828126	-229.3887329101563	648.9821166992189	-768.523376464844	-211.6778717041016	673.7765502929689	-780.886413574219	-184.6401977539063	578.8053588867189	-772.3157958984377	-68.37160491943361	492.9793090820314	-800.379333496094	-62.57247924804689	493.3572082519532	-924.4052734375002	39.64665985107423	418.5924072265626	-827.9617919921877	51.26862716674806	320.3060607910157	-780.6251220703127	81.66485595703126	345.5101928710938	-805.5682373046877	113.6528625488282	311.6053771972657	-840.8372802734377	163.4174194335938	160.3963012695313	-803.8377075195315	162.291732788086	176.4776763916016	-894.4620361328127	126.7749099731446	95.55189514160158	-844.5352172851565	310.6725158691407	180.7571258544922	-900.7861328125002	317.6616821289063	193.7761840820313	-858.6907348632815	298.8701477050782	155.7697448730469	-795.137390136719	
790	3.945	-81.15937805175783	1475.254760742188	-1089.668579101563	-259.9773864746094	1446.615966796875	-1117.748291015625	-238.4656677246094	1446.212036132813	-970.264831542969	-303.7309570312501	1291.453857421875	-1041.878051757813	-429.0886535644532	1017.934204101563	-1004.744201660156	-161.2046661376953	1205.806030273438	-1072.877319335938	-245.6367797851563	1269.993408203125	-1201.630859375	-174.9256286621094	1211.515380859375	-1342.781860351563	-143.9292755126953	1250.679931640625	-1334.517944335938	-112.3782348632813	1219.07763671875	-1371.148681640625	-51.59459686279298	1238.828979492188	-1392.399047851563	-19.00192451477051	1175.591918945313	-1353.957641601563	218.5191497802735	1249.309448242188	-1400.673461914063	197.5976867675782	1270.894775390625	-1472.021850585938	292.9703063964844	1285.885009765625	-1428.530517578125	-190.1044616699219	1275.127319335938	-930.7651977539065	-58.59567642211915	1216.864501953125	-827.7341308593752	-33.12216186523438	1250.1611328125	-854.284118652344	10.40298175811768	1213.499877929688	-833.816833496094	77.70311737060548	1226.036865234375	-849.113952636719	81.14943695068361	1158.560424804688	-896.3652954101565	330.1710510253907	1220.275146484375	-938.638122558594	333.9745483398438	1237.48583984375	-868.8699340820315	413.0969543457032	1244.397827148438	-937.4444580078127	-332.7056884765626	766.2117309570314	-1085.99853515625	-308.8669738769532	802.837585449219	-864.3686523437502	-492.1119384765626	873.7296142578127	-977.1453857421877	-507.147430419922	841.0631103515627	-1000.382568359375	-500.2155151367189	846.0695800781252	-943.9523925781252	-349.2838134765626	633.3701171875001	-1158.956909179688	-267.7453918457032	611.2765502929689	-1169.030517578125	-237.4268188476563	648.4824829101564	-1159.406005859375	-245.3520965576172	555.6515502929689	-1172.395751953125	-134.1900482177735	434.4990234375001	-1153.82080078125	-85.01547241210939	451.3366088867189	-1032.984008789063	-160.8039245605469	285.1730346679688	-1033.21337890625	-190.7943725585938	235.5291900634766	-1096.896118164063	-177.8375854492188	233.0958709716797	-1051.141723632813	-232.1695098876954	182.9543609619141	-1013.875	-323.5134582519532	113.8598785400391	-1054.350952148438	-298.7528686523438	138.6650390625	-967.5284423828127	-190.462646484375	62.34580993652345	-979.326599121094	-187.3040924072266	59.4546241760254	-1024.170532226563	-238.0490417480469	43.56862258911134	-1067.81884765625	-295.5246582031251	655.2775268554689	-759.2888793945314	-229.3183135986329	650.3036499023439	-768.6330566406252	-211.6766662597657	674.7120361328126	-780.8526611328127	-184.5655670166016	579.8038940429689	-772.5576782226565	-68.39456939697267	494.0385131835939	-800.5266113281252	-61.37145233154298	494.2168884277345	-924.385192871094	39.54991531372071	419.1897277832032	-828.285827636719	51.06186294555665	321.1177062988282	-780.5128173828127	81.21815490722658	346.1307983398438	-805.412048339844	113.1964492797852	312.3055114746094	-840.9519042968752	163.1038360595703	160.6371459960938	-804.1953125000002	162.260009765625	177.8597106933594	-894.6272583007815	126.1368179321289	96.07344818115237	-844.720397949219	310.1441345214844	181.0447235107422	-901.0104980468752	317.0525512695313	194.3916625976563	-859.2974243164065	298.2357482910157	155.9769744873047	-795.4342041015627	
